<?xml version="1.0" encoding="UTF-8" standalone="no"?>
<!-- Created with Inkscape (http://www.inkscape.org/) -->

<svg
   xmlns:dc="http://purl.org/dc/elements/1.1/"
   xmlns:cc="http://creativecommons.org/ns#"
   xmlns:rdf="http://www.w3.org/1999/02/22-rdf-syntax-ns#"
   xmlns:svg="http://www.w3.org/2000/svg"
   xmlns="http://www.w3.org/2000/svg"
   xmlns:sodipodi="http://sodipodi.sourceforge.net/DTD/sodipodi-0.dtd"
   xmlns:inkscape="http://www.inkscape.org/namespaces/inkscape"
   width="3700"
   height="3700"
   viewBox="0 0 978.95833 978.95838"
   version="1.1"
   id="svg8"
   inkscape:version="0.92.5 (2060ec1f9f, 2020-04-08)"
   sodipodi:docname="Bitmap.svg">
  <defs
     id="defs2">
    <inkscape:path-effect
       effect="bspline"
       id="path-effect2299"
       is_visible="true"
       weight="33.333333"
       steps="2"
       helper_size="0"
       apply_no_weight="true"
       apply_with_weight="true"
       only_selected="false" />
    <inkscape:path-effect
       effect="bspline"
       id="path-effect2295"
       is_visible="true"
       weight="33.333333"
       steps="2"
       helper_size="0"
       apply_no_weight="true"
       apply_with_weight="true"
       only_selected="false" />
    <inkscape:path-effect
       effect="bspline"
       id="path-effect2291"
       is_visible="true"
       weight="33.333333"
       steps="2"
       helper_size="0"
       apply_no_weight="true"
       apply_with_weight="true"
       only_selected="false" />
    <inkscape:path-effect
       effect="bspline"
       id="path-effect2287"
       is_visible="true"
       weight="33.333333"
       steps="2"
       helper_size="0"
       apply_no_weight="true"
       apply_with_weight="true"
       only_selected="false" />
    <inkscape:path-effect
       effect="bspline"
       id="path-effect2283"
       is_visible="true"
       weight="33.333333"
       steps="2"
       helper_size="0"
       apply_no_weight="true"
       apply_with_weight="true"
       only_selected="false" />
    <inkscape:path-effect
       effect="bspline"
       id="path-effect2279"
       is_visible="true"
       weight="33.333333"
       steps="2"
       helper_size="0"
       apply_no_weight="true"
       apply_with_weight="true"
       only_selected="false" />
    <inkscape:path-effect
       effect="bspline"
       id="path-effect2275"
       is_visible="true"
       weight="33.333333"
       steps="2"
       helper_size="0"
       apply_no_weight="true"
       apply_with_weight="true"
       only_selected="false" />
    <inkscape:path-effect
       effect="bspline"
       id="path-effect2271"
       is_visible="true"
       weight="33.333333"
       steps="2"
       helper_size="0"
       apply_no_weight="true"
       apply_with_weight="true"
       only_selected="false" />
    <inkscape:path-effect
       effect="bspline"
       id="path-effect2267"
       is_visible="true"
       weight="33.333333"
       steps="2"
       helper_size="0"
       apply_no_weight="true"
       apply_with_weight="true"
       only_selected="false" />
    <inkscape:path-effect
       effect="bspline"
       id="path-effect2263"
       is_visible="true"
       weight="33.333333"
       steps="2"
       helper_size="0"
       apply_no_weight="true"
       apply_with_weight="true"
       only_selected="false" />
    <inkscape:path-effect
       effect="bspline"
       id="path-effect2259"
       is_visible="true"
       weight="33.333333"
       steps="2"
       helper_size="0"
       apply_no_weight="true"
       apply_with_weight="true"
       only_selected="false" />
    <inkscape:path-effect
       effect="bspline"
       id="path-effect2255"
       is_visible="true"
       weight="33.333333"
       steps="2"
       helper_size="0"
       apply_no_weight="true"
       apply_with_weight="true"
       only_selected="false" />
    <inkscape:path-effect
       effect="bspline"
       id="path-effect2251"
       is_visible="true"
       weight="33.333333"
       steps="2"
       helper_size="0"
       apply_no_weight="true"
       apply_with_weight="true"
       only_selected="false" />
    <inkscape:path-effect
       effect="bspline"
       id="path-effect2247"
       is_visible="true"
       weight="33.333333"
       steps="2"
       helper_size="0"
       apply_no_weight="true"
       apply_with_weight="true"
       only_selected="false" />
    <inkscape:path-effect
       effect="bspline"
       id="path-effect2243"
       is_visible="true"
       weight="33.333333"
       steps="2"
       helper_size="0"
       apply_no_weight="true"
       apply_with_weight="true"
       only_selected="false" />
    <inkscape:path-effect
       effect="bspline"
       id="path-effect2239"
       is_visible="true"
       weight="33.333333"
       steps="2"
       helper_size="0"
       apply_no_weight="true"
       apply_with_weight="true"
       only_selected="false" />
    <inkscape:path-effect
       effect="bspline"
       id="path-effect2235"
       is_visible="true"
       weight="33.333333"
       steps="2"
       helper_size="0"
       apply_no_weight="true"
       apply_with_weight="true"
       only_selected="false" />
    <inkscape:path-effect
       effect="bspline"
       id="path-effect2231"
       is_visible="true"
       weight="33.333333"
       steps="2"
       helper_size="0"
       apply_no_weight="true"
       apply_with_weight="true"
       only_selected="false" />
    <inkscape:path-effect
       effect="bspline"
       id="path-effect2227"
       is_visible="true"
       weight="33.333333"
       steps="2"
       helper_size="0"
       apply_no_weight="true"
       apply_with_weight="true"
       only_selected="false" />
    <inkscape:path-effect
       effect="bspline"
       id="path-effect2223"
       is_visible="true"
       weight="33.333333"
       steps="2"
       helper_size="0"
       apply_no_weight="true"
       apply_with_weight="true"
       only_selected="false" />
    <inkscape:path-effect
       effect="bspline"
       id="path-effect2219"
       is_visible="true"
       weight="33.333333"
       steps="2"
       helper_size="0"
       apply_no_weight="true"
       apply_with_weight="true"
       only_selected="false" />
    <inkscape:path-effect
       effect="bspline"
       id="path-effect2215"
       is_visible="true"
       weight="33.333333"
       steps="2"
       helper_size="0"
       apply_no_weight="true"
       apply_with_weight="true"
       only_selected="false" />
    <inkscape:path-effect
       effect="bspline"
       id="path-effect2211"
       is_visible="true"
       weight="33.333333"
       steps="2"
       helper_size="0"
       apply_no_weight="true"
       apply_with_weight="true"
       only_selected="false" />
    <inkscape:path-effect
       effect="bspline"
       id="path-effect2207"
       is_visible="true"
       weight="33.333333"
       steps="2"
       helper_size="0"
       apply_no_weight="true"
       apply_with_weight="true"
       only_selected="false" />
    <inkscape:path-effect
       effect="bspline"
       id="path-effect2203"
       is_visible="true"
       weight="33.333333"
       steps="2"
       helper_size="0"
       apply_no_weight="true"
       apply_with_weight="true"
       only_selected="false" />
    <inkscape:path-effect
       effect="bspline"
       id="path-effect2199"
       is_visible="true"
       weight="33.333333"
       steps="2"
       helper_size="0"
       apply_no_weight="true"
       apply_with_weight="true"
       only_selected="false" />
    <inkscape:path-effect
       effect="bspline"
       id="path-effect2299-3"
       is_visible="true"
       weight="33.333333"
       steps="2"
       helper_size="0"
       apply_no_weight="true"
       apply_with_weight="true"
       only_selected="false" />
    <inkscape:path-effect
       effect="bspline"
       id="path-effect2299-7"
       is_visible="true"
       weight="33.333333"
       steps="2"
       helper_size="0"
       apply_no_weight="true"
       apply_with_weight="true"
       only_selected="false" />
    <inkscape:path-effect
       effect="bspline"
       id="path-effect2299-7-5"
       is_visible="true"
       weight="33.333333"
       steps="2"
       helper_size="0"
       apply_no_weight="true"
       apply_with_weight="true"
       only_selected="false" />
    <inkscape:path-effect
       effect="bspline"
       id="path-effect2299-7-2"
       is_visible="true"
       weight="33.333333"
       steps="2"
       helper_size="0"
       apply_no_weight="true"
       apply_with_weight="true"
       only_selected="false" />
    <inkscape:path-effect
       effect="bspline"
       id="path-effect2299-1"
       is_visible="true"
       weight="33.333333"
       steps="2"
       helper_size="0"
       apply_no_weight="true"
       apply_with_weight="true"
       only_selected="false" />
    <inkscape:path-effect
       effect="bspline"
       id="path-effect2299-7-2-7"
       is_visible="true"
       weight="33.333333"
       steps="2"
       helper_size="0"
       apply_no_weight="true"
       apply_with_weight="true"
       only_selected="false" />
    <inkscape:path-effect
       effect="bspline"
       id="path-effect2299-7-2-9"
       is_visible="true"
       weight="33.333333"
       steps="2"
       helper_size="0"
       apply_no_weight="true"
       apply_with_weight="true"
       only_selected="false" />
    <inkscape:path-effect
       effect="bspline"
       id="path-effect2299-7-2-9-6"
       is_visible="true"
       weight="33.333333"
       steps="2"
       helper_size="0"
       apply_no_weight="true"
       apply_with_weight="true"
       only_selected="false" />
  </defs>
  <sodipodi:namedview
     id="base"
     pagecolor="#202020"
     bordercolor="#666666"
     borderopacity="1.0"
     inkscape:pageopacity="0"
     inkscape:pageshadow="2"
     inkscape:zoom="0.30864865"
     inkscape:cx="1850"
     inkscape:cy="1850"
     inkscape:document-units="mm"
     inkscape:current-layer="layer1"
     showgrid="true"
     units="px"
     inkscape:window-width="1276"
     inkscape:window-height="2096"
     inkscape:window-x="1280"
     inkscape:window-y="30"
     inkscape:window-maximized="0"
     inkscape:pagecheckerboard="false">
    <inkscape:grid
       type="xygrid"
       id="grid10"
       spacingx="26.458333"
       spacingy="26.458333"
       empspacing="6"
       originx="26.458333"
       originy="26.458333" />
  </sodipodi:namedview>
  <metadata
     id="metadata5">
    <rdf:RDF>
      <cc:Work
         rdf:about="">
        <dc:format>image/svg+xml</dc:format>
        <dc:type
           rdf:resource="http://purl.org/dc/dcmitype/StillImage" />
        <dc:title></dc:title>
      </cc:Work>
    </rdf:RDF>
  </metadata>
  <g
     inkscape:label="Layer 1"
     inkscape:groupmode="layer"
     id="layer1"
     transform="translate(0,681.95836)">
    <path
       style="opacity:1;fill:#ffffff;fill-opacity:1;stroke:#ffffff;stroke-width:0;stroke-linecap:round;stroke-linejoin:round;stroke-miterlimit:4;stroke-dasharray:none;stroke-opacity:1;paint-order:normal"
       d="M 100 3100 L 100 3200 L 100 3300 L 100 3400 L 100 3500 L 100 3600 L 200 3600 L 200 3500 L 200 3400 L 200 3300 L 200 3200 L 300 3200 L 400 3200 L 500 3200 L 500 3300 L 500 3400 L 500 3500 L 500 3600 L 600 3600 L 600 3500 L 600 3400 L 600 3300 L 600 3200 L 600 3100 L 500 3100 L 400 3100 L 300 3100 L 200 3100 L 100 3100 z "
       transform="matrix(0.26458333,0,0,0.26458333,0,-681.95836)"
       id="rect4602-0" />
    <path
       style="opacity:1;fill:#ffffff;fill-opacity:1;stroke:#ffffff;stroke-width:0;stroke-linecap:round;stroke-linejoin:round;stroke-miterlimit:4;stroke-dasharray:none;stroke-opacity:1;paint-order:normal"
       d="M 100 2500 L 100 2600 L 200 2600 L 200 2700 L 200 2800 L 200 2900 L 200 3000 L 300 3000 L 300 2900 L 300 2800 L 300 2700 L 300 2600 L 400 2600 L 400 2700 L 400 2800 L 400 2900 L 400 3000 L 500 3000 L 500 2900 L 500 2800 L 500 2700 L 500 2600 L 600 2600 L 600 2500 L 500 2500 L 400 2500 L 300 2500 L 200 2500 L 100 2500 z "
       transform="matrix(0.26458333,0,0,0.26458333,0,-681.95836)"
       id="rect4602-4" />
    <path
       style="opacity:1;fill:#ffffff;fill-opacity:1;stroke:#ffffff;stroke-width:0;stroke-linecap:round;stroke-linejoin:round;stroke-miterlimit:4;stroke-dasharray:none;stroke-opacity:1;paint-order:normal"
       d="M 800 2500 L 800 2600 L 800 2700 L 800 2800 L 800 2900 L 700 2900 L 700 3000 L 800 3000 L 900 3000 L 1000 3000 L 1100 3000 L 1200 3000 L 1200 2900 L 1100 2900 L 1100 2800 L 1100 2700 L 1100 2600 L 1100 2500 L 1000 2500 L 1000 2600 L 1000 2700 L 1000 2800 L 1000 2900 L 900 2900 L 900 2800 L 900 2700 L 900 2600 L 900 2500 L 800 2500 z "
       transform="matrix(0.26458333,0,0,0.26458333,0,-681.95836)"
       id="rect4602-49" />
    <path
       style="opacity:1;fill:#ffffff;fill-opacity:1;stroke:#ffffff;stroke-width:0;stroke-linecap:round;stroke-linejoin:round;stroke-miterlimit:4;stroke-dasharray:none;stroke-opacity:1;paint-order:normal"
       d="M 700 3100 L 700 3200 L 700 3300 L 700 3400 L 700 3500 L 700 3600 L 800 3600 L 900 3600 L 1000 3600 L 1100 3600 L 1200 3600 L 1200 3500 L 1200 3400 L 1200 3300 L 1200 3200 L 1200 3100 L 1100 3100 L 1100 3200 L 1100 3300 L 1100 3400 L 1100 3500 L 1000 3500 L 900 3500 L 800 3500 L 800 3400 L 800 3300 L 800 3200 L 800 3100 L 700 3100 z "
       transform="matrix(0.26458333,0,0,0.26458333,0,-681.95836)"
       id="rect4602-15" />
    <path
       style="opacity:1;fill:#ffffff;fill-opacity:1;stroke:#ffffff;stroke-width:0;stroke-linecap:round;stroke-linejoin:round;stroke-miterlimit:4;stroke-dasharray:none;stroke-opacity:1;paint-order:normal"
       d="M 1300 3100 L 1300 3200 L 1300 3300 L 1300 3400 L 1300 3500 L 1300 3600 L 1400 3600 L 1400 3500 L 1400 3400 L 1500 3400 L 1600 3400 L 1700 3400 L 1700 3500 L 1700 3600 L 1800 3600 L 1800 3500 L 1800 3400 L 1800 3300 L 1800 3200 L 1800 3100 L 1700 3100 L 1700 3200 L 1700 3300 L 1600 3300 L 1500 3300 L 1400 3300 L 1400 3200 L 1400 3100 L 1300 3100 z "
       transform="matrix(0.26458333,0,0,0.26458333,0,-681.95836)"
       id="rect4602-93" />
    <path
       style="opacity:1;fill:#ffffff;fill-opacity:1;stroke:#ffffff;stroke-width:0;stroke-linecap:round;stroke-linejoin:round;stroke-miterlimit:4;stroke-dasharray:none;stroke-opacity:1;paint-order:normal"
       d="M 1400 2500 L 1400 2600 L 1400 2700 L 1300 2700 L 1300 2800 L 1400 2800 L 1400 2900 L 1400 3000 L 1500 3000 L 1500 2900 L 1500 2800 L 1600 2800 L 1600 2900 L 1600 3000 L 1700 3000 L 1700 2900 L 1700 2800 L 1800 2800 L 1800 2700 L 1700 2700 L 1700 2600 L 1700 2500 L 1600 2500 L 1600 2600 L 1600 2700 L 1500 2700 L 1500 2600 L 1500 2500 L 1400 2500 z "
       transform="matrix(0.26458333,0,0,0.26458333,0,-681.95836)"
       id="rect4602-631" />
    <path
       style="opacity:1;fill:#ffffff;fill-opacity:1;stroke:#ffffff;stroke-width:0;stroke-linecap:round;stroke-linejoin:round;stroke-miterlimit:4;stroke-dasharray:none;stroke-opacity:1;paint-order:normal"
       d="M 100 1900 L 100 2000 L 200 2000 L 300 2000 L 300 2100 L 200 2100 L 100 2100 L 100 2200 L 200 2200 L 300 2200 L 300 2300 L 300 2400 L 400 2400 L 400 2300 L 400 2200 L 500 2200 L 600 2200 L 600 2100 L 500 2100 L 400 2100 L 400 2000 L 500 2000 L 600 2000 L 600 1900 L 500 1900 L 400 1900 L 300 1900 L 200 1900 L 100 1900 z "
       transform="matrix(0.26458333,0,0,0.26458333,0,-681.95836)"
       id="rect4602-38" />
    <path
       style="opacity:1;fill:#ffffff;fill-opacity:1;stroke:#ffffff;stroke-width:0;stroke-linecap:round;stroke-linejoin:round;stroke-miterlimit:4;stroke-dasharray:none;stroke-opacity:1;paint-order:normal"
       d="M 900 1900 L 900 2000 L 900 2100 L 800 2100 L 700 2100 L 700 2200 L 800 2200 L 900 2200 L 900 2300 L 800 2300 L 700 2300 L 700 2400 L 800 2400 L 900 2400 L 1000 2400 L 1100 2400 L 1200 2400 L 1200 2300 L 1100 2300 L 1000 2300 L 1000 2200 L 1100 2200 L 1200 2200 L 1200 2100 L 1100 2100 L 1000 2100 L 1000 2000 L 1000 1900 L 900 1900 z "
       transform="matrix(0.26458333,0,0,0.26458333,0,-681.95836)"
       id="rect4602-28" />
    <path
       style="opacity:1;fill:#ffffff;fill-opacity:1;stroke:#ffffff;stroke-width:0;stroke-linecap:round;stroke-linejoin:round;stroke-miterlimit:4;stroke-dasharray:none;stroke-opacity:1;paint-order:normal"
       d="M 1500 1900 L 1500 2000 L 1400 2000 L 1300 2000 L 1300 2100 L 1400 2100 L 1500 2100 L 1500 2200 L 1400 2200 L 1300 2200 L 1300 2300 L 1400 2300 L 1500 2300 L 1500 2400 L 1600 2400 L 1600 2300 L 1700 2300 L 1800 2300 L 1800 2200 L 1700 2200 L 1600 2200 L 1600 2100 L 1700 2100 L 1800 2100 L 1800 2000 L 1700 2000 L 1600 2000 L 1600 1900 L 1500 1900 z "
       transform="matrix(0.26458333,0,0,0.26458333,0,-681.95836)"
       id="rect4602-99" />
    <path
       style="opacity:1;fill:#ffffff;fill-opacity:1;stroke:#ffffff;stroke-width:0;stroke-linecap:round;stroke-linejoin:round;stroke-miterlimit:4;stroke-dasharray:none;stroke-opacity:1;paint-order:normal"
       d="M 100 1300 L 100 1400 L 100 1500 L 100 1600 L 100 1700 L 100 1800 L 200 1800 L 200 1700 L 200 1600 L 200 1500 L 200 1400 L 300 1400 L 400 1400 L 500 1400 L 600 1400 L 600 1300 L 500 1300 L 400 1300 L 300 1300 L 200 1300 L 100 1300 z "
       transform="matrix(0.26458333,0,0,0.26458333,0,-681.95836)"
       id="rect4602-569" />
    <path
       style="opacity:1;fill:#ffffff;fill-opacity:1;stroke:#ffffff;stroke-width:0;stroke-linecap:round;stroke-linejoin:round;stroke-miterlimit:4;stroke-dasharray:none;stroke-opacity:1;paint-order:normal"
       d="M 700 1300 L 700 1400 L 700 1500 L 700 1600 L 700 1700 L 700 1800 L 800 1800 L 900 1800 L 1000 1800 L 1100 1800 L 1200 1800 L 1200 1700 L 1100 1700 L 1000 1700 L 900 1700 L 800 1700 L 800 1600 L 800 1500 L 800 1400 L 800 1300 L 700 1300 z "
       transform="matrix(0.26458333,0,0,0.26458333,0,-681.95836)"
       id="rect4602-910" />
    <path
       style="opacity:1;fill:#ffffff;fill-opacity:1;stroke:#ffffff;stroke-width:0;stroke-linecap:round;stroke-linejoin:round;stroke-miterlimit:4;stroke-dasharray:none;stroke-opacity:1;paint-order:normal"
       d="M 1300 1300 L 1300 1400 L 1300 1500 L 1300 1600 L 1300 1700 L 1300 1800 L 1400 1800 L 1400 1700 L 1400 1600 L 1500 1600 L 1600 1600 L 1700 1600 L 1800 1600 L 1800 1500 L 1700 1500 L 1600 1500 L 1500 1500 L 1400 1500 L 1400 1400 L 1400 1300 L 1300 1300 z "
       transform="matrix(0.26458333,0,0,0.26458333,0,-681.95836)"
       id="rect4602-29" />
    <path
       style="opacity:1;fill:#ffffff;fill-opacity:1;stroke:#ffffff;stroke-width:0;stroke-linecap:round;stroke-linejoin:round;stroke-miterlimit:4;stroke-dasharray:none;stroke-opacity:1;paint-order:normal"
       d="M 1500 700 L 1500 800 L 1500 900 L 1400 900 L 1300 900 L 1300 1000 L 1400 1000 L 1500 1000 L 1500 1100 L 1500 1200 L 1600 1200 L 1600 1100 L 1600 1000 L 1700 1000 L 1800 1000 L 1800 900 L 1700 900 L 1600 900 L 1600 800 L 1600 700 L 1500 700 z "
       transform="matrix(0.26458333,0,0,0.26458333,0,-681.95836)"
       id="rect4602-435" />
    <path
       style="opacity:1;fill:#ffffff;fill-opacity:1;stroke:#ffffff;stroke-width:0;stroke-linecap:round;stroke-linejoin:round;stroke-miterlimit:4;stroke-dasharray:none;stroke-opacity:1;paint-order:normal"
       d="M 900 700 L 900 800 L 900 900 L 900 1000 L 900 1100 L 800 1100 L 700 1100 L 700 1200 L 800 1200 L 900 1200 L 1000 1200 L 1100 1200 L 1200 1200 L 1200 1100 L 1100 1100 L 1000 1100 L 1000 1000 L 1000 900 L 1000 800 L 1000 700 L 900 700 z "
       transform="matrix(0.26458333,0,0,0.26458333,0,-681.95836)"
       id="rect4602-683" />
    <path
       style="opacity:1;fill:#ffffff;fill-opacity:1;stroke:#ffffff;stroke-width:0;stroke-linecap:round;stroke-linejoin:round;stroke-miterlimit:4;stroke-dasharray:none;stroke-opacity:1;paint-order:normal"
       d="M 1100 100 L 1100 200 L 1100 300 L 1100 400 L 1100 500 L 1000 500 L 900 500 L 800 500 L 700 500 L 700 600 L 800 600 L 900 600 L 1000 600 L 1100 600 L 1200 600 L 1200 500 L 1200 400 L 1200 300 L 1200 200 L 1200 100 L 1100 100 z "
       transform="matrix(0.26458333,0,0,0.26458333,0,-681.95836)"
       id="rect4602-37" />
    <path
       style="opacity:1;fill:#ffffff;fill-opacity:1;stroke:#ffffff;stroke-width:0;stroke-linecap:round;stroke-linejoin:round;stroke-miterlimit:4;stroke-dasharray:none;stroke-opacity:1;paint-order:normal"
       d="M 100 700 L 100 800 L 200 800 L 300 800 L 300 900 L 300 1000 L 300 1100 L 300 1200 L 400 1200 L 400 1100 L 400 1000 L 400 900 L 400 800 L 500 800 L 600 800 L 600 700 L 500 700 L 400 700 L 300 700 L 200 700 L 100 700 z "
       transform="matrix(0.26458333,0,0,0.26458333,0,-681.95836)"
       id="rect4602-041" />
    <path
       style="opacity:1;fill:#ffffff;fill-opacity:1;stroke:#ffffff;stroke-width:0;stroke-linecap:round;stroke-linejoin:round;stroke-miterlimit:4;stroke-dasharray:none;stroke-opacity:1;paint-order:normal"
       d="M 100 100 L 100 200 L 200 200 L 300 200 L 400 200 L 500 200 L 500 300 L 500 400 L 500 500 L 500 600 L 600 600 L 600 500 L 600 400 L 600 300 L 600 200 L 600 100 L 500 100 L 400 100 L 300 100 L 200 100 L 100 100 z "
       transform="matrix(0.26458333,0,0,0.26458333,0,-681.95836)"
       id="rect4602-925" />
    <path
       style="opacity:1;fill:#ffffff;fill-opacity:1;stroke:#ffffff;stroke-width:0;stroke-linecap:round;stroke-linejoin:round;stroke-miterlimit:4;stroke-dasharray:none;stroke-opacity:1;paint-order:normal"
       d="M 1700 100 L 1700 200 L 1700 300 L 1600 300 L 1500 300 L 1400 300 L 1300 300 L 1300 400 L 1400 400 L 1500 400 L 1600 400 L 1700 400 L 1700 500 L 1700 600 L 1800 600 L 1800 500 L 1800 400 L 1800 300 L 1800 200 L 1800 100 L 1700 100 z "
       transform="matrix(0.26458333,0,0,0.26458333,0,-681.95836)"
       id="rect4602-67" />
    <path
       style="opacity:1;fill:#ffffff;fill-opacity:1;stroke:#ffffff;stroke-width:0;stroke-linecap:round;stroke-linejoin:round;stroke-miterlimit:4;stroke-dasharray:none;stroke-opacity:1;paint-order:normal"
       d="M 1900 100 L 1900 200 L 2000 200 L 2100 200 L 2100 300 L 2100 400 L 2200 400 L 2300 400 L 2300 500 L 2300 600 L 2400 600 L 2400 500 L 2400 400 L 2400 300 L 2400 200 L 2400 100 L 2300 100 L 2300 200 L 2300 300 L 2200 300 L 2200 200 L 2200 100 L 2100 100 L 2000 100 L 1900 100 z "
       transform="matrix(0.26458333,0,0,0.26458333,0,-681.95836)"
       id="rect4602-101" />
    <path
       style="opacity:1;fill:#ffffff;fill-opacity:1;stroke:#ffffff;stroke-width:0;stroke-linecap:round;stroke-linejoin:round;stroke-miterlimit:4;stroke-dasharray:none;stroke-opacity:1;paint-order:normal"
       d="M 2700 100 L 2700 200 L 2700 300 L 2700 400 L 2800 400 L 2900 400 L 2900 500 L 2800 500 L 2700 500 L 2600 500 L 2500 500 L 2500 600 L 2600 600 L 2700 600 L 2800 600 L 2900 600 L 3000 600 L 3000 500 L 3000 400 L 3000 300 L 3000 200 L 3000 100 L 2900 100 L 2900 200 L 2900 300 L 2800 300 L 2800 200 L 2800 100 L 2700 100 z "
       transform="matrix(0.26458333,0,0,0.26458333,0,-681.95836)"
       id="rect4602-597" />
    <path
       style="opacity:1;fill:#ffffff;fill-opacity:1;stroke:#ffffff;stroke-width:0;stroke-linecap:round;stroke-linejoin:round;stroke-miterlimit:4;stroke-dasharray:none;stroke-opacity:1;paint-order:normal"
       d="M 3300 100 L 3300 200 L 3300 300 L 3200 300 L 3100 300 L 3100 400 L 3200 400 L 3300 400 L 3400 400 L 3500 400 L 3500 500 L 3500 600 L 3600 600 L 3600 500 L 3600 400 L 3600 300 L 3600 200 L 3600 100 L 3500 100 L 3500 200 L 3500 300 L 3400 300 L 3400 200 L 3400 100 L 3300 100 z "
       transform="matrix(0.26458333,0,0,0.26458333,0,-681.95836)"
       id="rect4602-2202" />
    <path
       style="opacity:1;fill:#ffffff;fill-opacity:1;stroke:#ffffff;stroke-width:0;stroke-linecap:round;stroke-linejoin:round;stroke-miterlimit:4;stroke-dasharray:none;stroke-opacity:1;paint-order:normal"
       d="M 1900 700 L 1900 800 L 2000 800 L 2100 800 L 2100 900 L 2100 1000 L 2100 1100 L 2100 1200 L 2200 1200 L 2200 1100 L 2200 1000 L 2300 1000 L 2400 1000 L 2400 900 L 2400 800 L 2400 700 L 2300 700 L 2300 800 L 2300 900 L 2200 900 L 2200 800 L 2200 700 L 2100 700 L 2000 700 L 1900 700 z "
       transform="matrix(0.26458333,0,0,0.26458333,0,-681.95836)"
       id="rect4602-022" />
    <path
       style="opacity:1;fill:#ffffff;fill-opacity:1;stroke:#ffffff;stroke-width:0;stroke-linecap:round;stroke-linejoin:round;stroke-miterlimit:4;stroke-dasharray:none;stroke-opacity:1;paint-order:normal"
       d="M 2700 700 L 2700 800 L 2700 900 L 2700 1000 L 2700 1100 L 2600 1100 L 2500 1100 L 2500 1200 L 2600 1200 L 2700 1200 L 2800 1200 L 2900 1200 L 3000 1200 L 3000 1100 L 2900 1100 L 2800 1100 L 2800 1000 L 2900 1000 L 3000 1000 L 3000 900 L 3000 800 L 3000 700 L 2900 700 L 2900 800 L 2900 900 L 2800 900 L 2800 800 L 2800 700 L 2700 700 z "
       transform="matrix(0.26458333,0,0,0.26458333,0,-681.95836)"
       id="rect4602-222" />
    <path
       style="opacity:1;fill:#ffffff;fill-opacity:1;stroke:#ffffff;stroke-width:0;stroke-linecap:round;stroke-linejoin:round;stroke-miterlimit:4;stroke-dasharray:none;stroke-opacity:1;paint-order:normal"
       d="M 3300 700 L 3300 800 L 3300 900 L 3200 900 L 3100 900 L 3100 1000 L 3200 1000 L 3300 1000 L 3300 1100 L 3300 1200 L 3400 1200 L 3400 1100 L 3400 1000 L 3500 1000 L 3600 1000 L 3600 900 L 3600 800 L 3600 700 L 3500 700 L 3500 800 L 3500 900 L 3400 900 L 3400 800 L 3400 700 L 3300 700 z "
       transform="matrix(0.26458333,0,0,0.26458333,0,-681.95836)"
       id="rect4602-080" />
    <path
       style="opacity:1;fill:#ffffff;fill-opacity:1;stroke:#ffffff;stroke-width:0;stroke-linecap:round;stroke-linejoin:round;stroke-miterlimit:4;stroke-dasharray:none;stroke-opacity:1;paint-order:normal"
       d="M 1900 1300 L 1900 1400 L 1900 1500 L 1900 1600 L 1900 1700 L 1900 1800 L 2000 1800 L 2000 1700 L 2000 1600 L 2100 1600 L 2200 1600 L 2200 1500 L 2200 1400 L 2300 1400 L 2400 1400 L 2400 1300 L 2300 1300 L 2200 1300 L 2100 1300 L 2100 1400 L 2100 1500 L 2000 1500 L 2000 1400 L 2000 1300 L 1900 1300 z "
       transform="matrix(0.26458333,0,0,0.26458333,0,-681.95836)"
       id="rect4602-812" />
    <path
       style="opacity:1;fill:#ffffff;fill-opacity:1;stroke:#ffffff;stroke-width:0;stroke-linecap:round;stroke-linejoin:round;stroke-miterlimit:4;stroke-dasharray:none;stroke-opacity:1;paint-order:normal"
       d="M 2500 1300 L 2500 1400 L 2500 1500 L 2500 1600 L 2500 1700 L 2500 1800 L 2600 1800 L 2700 1800 L 2800 1800 L 2900 1800 L 3000 1800 L 3000 1700 L 2900 1700 L 2800 1700 L 2700 1700 L 2600 1700 L 2600 1600 L 2700 1600 L 2800 1600 L 2800 1500 L 2800 1400 L 2800 1300 L 2700 1300 L 2700 1400 L 2700 1500 L 2600 1500 L 2600 1400 L 2600 1300 L 2500 1300 z "
       transform="matrix(0.26458333,0,0,0.26458333,0,-681.95836)"
       id="rect4602-922" />
    <path
       style="opacity:1;fill:#ffffff;fill-opacity:1;stroke:#ffffff;stroke-width:0;stroke-linecap:round;stroke-linejoin:round;stroke-miterlimit:4;stroke-dasharray:none;stroke-opacity:1;paint-order:normal"
       d="M 3100 1300 L 3100 1400 L 3100 1500 L 3100 1600 L 3100 1700 L 3100 1800 L 3200 1800 L 3200 1700 L 3200 1600 L 3300 1600 L 3400 1600 L 3500 1600 L 3600 1600 L 3600 1500 L 3500 1500 L 3400 1500 L 3400 1400 L 3400 1300 L 3300 1300 L 3300 1400 L 3300 1500 L 3200 1500 L 3200 1400 L 3200 1300 L 3100 1300 z "
       transform="matrix(0.26458333,0,0,0.26458333,0,-681.95836)"
       id="rect4602-606" />
    <path
       style="opacity:1;fill:#ffffff;fill-opacity:1;stroke:#ffffff;stroke-width:0;stroke-linecap:round;stroke-linejoin:round;stroke-miterlimit:4;stroke-dasharray:none;stroke-opacity:1;paint-order:normal"
       d="M 2100 1900 L 2100 2000 L 2200 2000 L 2300 2000 L 2300 2100 L 2200 2100 L 2100 2100 L 2000 2100 L 1900 2100 L 1900 2200 L 1900 2300 L 1900 2400 L 2000 2400 L 2000 2300 L 2000 2200 L 2100 2200 L 2200 2200 L 2300 2200 L 2400 2200 L 2400 2100 L 2400 2000 L 2400 1900 L 2300 1900 L 2200 1900 L 2100 1900 z "
       transform="matrix(0.26458333,0,0,0.26458333,0,-681.95836)"
       id="rect4602-756" />
    <path
       style="opacity:1;fill:#ffffff;fill-opacity:1;stroke:#ffffff;stroke-width:0;stroke-linecap:round;stroke-linejoin:round;stroke-miterlimit:4;stroke-dasharray:none;stroke-opacity:1;paint-order:normal"
       d="M 2900 1900 L 2900 2000 L 2900 2100 L 2800 2100 L 2700 2100 L 2600 2100 L 2500 2100 L 2500 2200 L 2500 2300 L 2500 2400 L 2600 2400 L 2700 2400 L 2800 2400 L 2900 2400 L 3000 2400 L 3000 2300 L 2900 2300 L 2800 2300 L 2700 2300 L 2600 2300 L 2600 2200 L 2700 2200 L 2800 2200 L 2900 2200 L 3000 2200 L 3000 2100 L 3000 2000 L 3000 1900 L 2900 1900 z "
       transform="matrix(0.26458333,0,0,0.26458333,0,-681.95836)"
       id="rect4602-156" />
    <path
       style="opacity:1;fill:#ffffff;fill-opacity:1;stroke:#ffffff;stroke-width:0;stroke-linecap:round;stroke-linejoin:round;stroke-miterlimit:4;stroke-dasharray:none;stroke-opacity:1;paint-order:normal"
       d="M 3500 1900 L 3500 2000 L 3500 2100 L 3400 2100 L 3300 2100 L 3200 2100 L 3100 2100 L 3100 2200 L 3100 2300 L 3100 2400 L 3200 2400 L 3200 2300 L 3200 2200 L 3300 2200 L 3400 2200 L 3500 2200 L 3600 2200 L 3600 2100 L 3600 2000 L 3600 1900 L 3500 1900 z "
       transform="matrix(0.26458333,0,0,0.26458333,0,-681.95836)"
       id="rect4602-769" />
    <path
       style="opacity:1;fill:#ffffff;fill-opacity:1;stroke:#ffffff;stroke-width:0;stroke-linecap:round;stroke-linejoin:round;stroke-miterlimit:4;stroke-dasharray:none;stroke-opacity:1;paint-order:normal"
       d="M 3500 2500 L 3500 2600 L 3500 2700 L 3400 2700 L 3300 2700 L 3200 2700 L 3100 2700 L 3100 2800 L 3200 2800 L 3300 2800 L 3300 2900 L 3300 3000 L 3400 3000 L 3400 2900 L 3400 2800 L 3500 2800 L 3600 2800 L 3600 2700 L 3600 2600 L 3600 2500 L 3500 2500 z "
       transform="matrix(0.26458333,0,0,0.26458333,0,-681.95836)"
       id="rect4602-45" />
    <path
       style="opacity:1;fill:#ffffff;fill-opacity:1;stroke:#ffffff;stroke-width:0;stroke-linecap:round;stroke-linejoin:round;stroke-miterlimit:4;stroke-dasharray:none;stroke-opacity:1;paint-order:normal"
       d="M 3100 3100 L 3100 3200 L 3100 3300 L 3100 3400 L 3200 3400 L 3300 3400 L 3300 3500 L 3300 3600 L 3400 3600 L 3400 3500 L 3400 3400 L 3500 3400 L 3600 3400 L 3600 3300 L 3500 3300 L 3400 3300 L 3300 3300 L 3200 3300 L 3200 3200 L 3200 3100 L 3100 3100 z "
       transform="matrix(0.26458333,0,0,0.26458333,0,-681.95836)"
       id="rect4602-957" />
    <path
       style="opacity:1;fill:#ffffff;fill-opacity:1;stroke:#ffffff;stroke-width:0;stroke-linecap:round;stroke-linejoin:round;stroke-miterlimit:4;stroke-dasharray:none;stroke-opacity:1;paint-order:normal"
       d="M 2900 2500 L 2900 2600 L 2900 2700 L 2800 2700 L 2700 2700 L 2700 2800 L 2700 2900 L 2600 2900 L 2500 2900 L 2500 3000 L 2600 3000 L 2700 3000 L 2800 3000 L 2900 3000 L 3000 3000 L 3000 2900 L 2900 2900 L 2800 2900 L 2800 2800 L 2900 2800 L 3000 2800 L 3000 2700 L 3000 2600 L 3000 2500 L 2900 2500 z "
       transform="matrix(0.26458333,0,0,0.26458333,0,-681.95836)"
       id="rect4602-9810" />
    <path
       style="opacity:1;fill:#ffffff;fill-opacity:1;stroke:#ffffff;stroke-width:0;stroke-linecap:round;stroke-linejoin:round;stroke-miterlimit:4;stroke-dasharray:none;stroke-opacity:1;paint-order:normal"
       d="M 2500 3100 L 2500 3200 L 2500 3300 L 2500 3400 L 2600 3400 L 2700 3400 L 2700 3500 L 2600 3500 L 2500 3500 L 2500 3600 L 2600 3600 L 2700 3600 L 2800 3600 L 2900 3600 L 3000 3600 L 3000 3500 L 2900 3500 L 2800 3500 L 2800 3400 L 2800 3300 L 2700 3300 L 2600 3300 L 2600 3200 L 2600 3100 L 2500 3100 z "
       transform="matrix(0.26458333,0,0,0.26458333,0,-681.95836)"
       id="rect4602-640" />
    <path
       style="opacity:1;fill:#ffffff;fill-opacity:1;stroke:#ffffff;stroke-width:0;stroke-linecap:round;stroke-linejoin:round;stroke-miterlimit:4;stroke-dasharray:none;stroke-opacity:1;paint-order:normal"
       d="M 1900 3100 L 1900 3200 L 1900 3300 L 1900 3400 L 2000 3400 L 2100 3400 L 2100 3500 L 2100 3600 L 2200 3600 L 2200 3500 L 2200 3400 L 2200 3300 L 2100 3300 L 2000 3300 L 2000 3200 L 2100 3200 L 2200 3200 L 2300 3200 L 2400 3200 L 2400 3100 L 2300 3100 L 2200 3100 L 2100 3100 L 2000 3100 L 1900 3100 z "
       transform="matrix(0.26458333,0,0,0.26458333,0,-681.95836)"
       id="rect4602-860" />
    <path
       style="opacity:1;fill:#ffffff;fill-opacity:1;stroke:#ffffff;stroke-width:0;stroke-linecap:round;stroke-linejoin:round;stroke-miterlimit:4;stroke-dasharray:none;stroke-opacity:1;paint-order:normal"
       d="M 1900 2500 L 1900 2600 L 2000 2600 L 2100 2600 L 2200 2600 L 2300 2600 L 2300 2700 L 2200 2700 L 2100 2700 L 2100 2800 L 2100 2900 L 2100 3000 L 2200 3000 L 2200 2900 L 2200 2800 L 2300 2800 L 2400 2800 L 2400 2700 L 2400 2600 L 2400 2500 L 2300 2500 L 2200 2500 L 2100 2500 L 2000 2500 L 1900 2500 z "
       transform="matrix(0.26458333,0,0,0.26458333,0,-681.95836)"
       id="rect4602-461" />
  </g>
</svg>
